<mxfile host="drawio-plugin" modified="2023-03-30T11:52:35.765Z" agent="5.0 (Windows NT 6.2; Win64; x64) AppleWebKit/537.36 (KHTML, like Gecko) Chrome/97.0.4692.45 Safari/537.36" etag="10QdQYhp1dlwgCqyjfN3" version="20.5.3" type="embed"><diagram name="Page-1" id="b5b7bab2-c9e2-2cf4-8b2a-24fd1a2a6d21"><mxGraphModel dx="2063" dy="473" grid="1" gridSize="10" guides="1" tooltips="1" connect="1" arrows="1" fold="1" page="1" pageScale="1" pageWidth="827" pageHeight="1169" background="none" math="0" shadow="0"><root><mxCell id="0"/><mxCell id="1" parent="0"/><mxCell id="QhE-6qrhUUo0ayt2risc-1" value="Todo app" style="shape=umlFrame;whiteSpace=wrap;html=1;width=90;height=30;" parent="1" vertex="1"><mxGeometry x="650" y="30" width="1101" height="1190" as="geometry"/></mxCell><mxCell id="QhE-6qrhUUo0ayt2risc-25" value="Use cases" style="shape=umlFrame;whiteSpace=wrap;html=1;width=80;height=30;" parent="1" vertex="1"><mxGeometry x="-220" y="120" width="750" height="915" as="geometry"/></mxCell><mxCell id="QhE-6qrhUUo0ayt2risc-36" value="Todo list" style="shape=umlFrame;whiteSpace=wrap;html=1;" parent="1" vertex="1"><mxGeometry x="90" y="180" width="230" height="350" as="geometry"/></mxCell><mxCell id="QhE-6qrhUUo0ayt2risc-5" value="Application" style="swimlane;fontStyle=0;childLayout=stackLayout;horizontal=1;startSize=20;fillColor=none;horizontalStack=0;resizeParent=1;resizeParentMax=0;resizeLast=0;collapsible=1;marginBottom=0;" parent="1" vertex="1"><mxGeometry x="1171" y="320" width="140" height="46" as="geometry"/></mxCell><mxCell id="QhE-6qrhUUo0ayt2risc-9" value="REST Service" style="swimlane;fontStyle=0;childLayout=stackLayout;horizontal=1;startSize=26;fillColor=none;horizontalStack=0;resizeParent=1;resizeParentMax=0;resizeLast=0;collapsible=1;marginBottom=0;" parent="1" vertex="1"><mxGeometry x="720" y="240" width="140" height="52" as="geometry"/></mxCell><mxCell id="QhE-6qrhUUo0ayt2risc-13" value="«interface»&lt;br&gt;&lt;b&gt;API Port&lt;/b&gt;" style="html=1;" parent="1" vertex="1"><mxGeometry x="990" y="318" width="110" height="50" as="geometry"/></mxCell><mxCell id="QhE-6qrhUUo0ayt2risc-15" value="Use" style="endArrow=open;endSize=12;dashed=1;html=1;rounded=0;edgeStyle=orthogonalEdgeStyle;" parent="1" source="QhE-6qrhUUo0ayt2risc-9" target="QhE-6qrhUUo0ayt2risc-13" edge="1"><mxGeometry width="160" relative="1" as="geometry"><mxPoint x="1510" y="415" as="sourcePoint"/><mxPoint x="1670" y="415" as="targetPoint"/></mxGeometry></mxCell><mxCell id="QhE-6qrhUUo0ayt2risc-16" value="" style="endArrow=block;dashed=1;endFill=0;endSize=12;html=1;rounded=0;" parent="1" source="QhE-6qrhUUo0ayt2risc-5" target="QhE-6qrhUUo0ayt2risc-13" edge="1"><mxGeometry width="160" relative="1" as="geometry"><mxPoint x="1510" y="415" as="sourcePoint"/><mxPoint x="1670" y="415" as="targetPoint"/></mxGeometry></mxCell><mxCell id="QhE-6qrhUUo0ayt2risc-31" style="rounded=0;orthogonalLoop=1;jettySize=auto;html=1;" parent="1" source="QhE-6qrhUUo0ayt2risc-26" target="QhE-6qrhUUo0ayt2risc-27" edge="1"><mxGeometry relative="1" as="geometry"/></mxCell><mxCell id="QhE-6qrhUUo0ayt2risc-33" style="edgeStyle=none;rounded=0;orthogonalLoop=1;jettySize=auto;html=1;" parent="1" source="QhE-6qrhUUo0ayt2risc-26" target="QhE-6qrhUUo0ayt2risc-32" edge="1"><mxGeometry relative="1" as="geometry"/></mxCell><mxCell id="QhE-6qrhUUo0ayt2risc-35" style="edgeStyle=none;rounded=0;orthogonalLoop=1;jettySize=auto;html=1;" parent="1" source="QhE-6qrhUUo0ayt2risc-26" target="QhE-6qrhUUo0ayt2risc-34" edge="1"><mxGeometry relative="1" as="geometry"/></mxCell><mxCell id="QhE-6qrhUUo0ayt2risc-39" style="edgeStyle=none;rounded=0;orthogonalLoop=1;jettySize=auto;html=1;" parent="1" source="QhE-6qrhUUo0ayt2risc-26" target="QhE-6qrhUUo0ayt2risc-38" edge="1"><mxGeometry relative="1" as="geometry"/></mxCell><mxCell id="QhE-6qrhUUo0ayt2risc-41" style="edgeStyle=none;rounded=0;orthogonalLoop=1;jettySize=auto;html=1;" parent="1" source="QhE-6qrhUUo0ayt2risc-26" target="QhE-6qrhUUo0ayt2risc-40" edge="1"><mxGeometry relative="1" as="geometry"/></mxCell><mxCell id="QhE-6qrhUUo0ayt2risc-43" style="edgeStyle=none;rounded=0;orthogonalLoop=1;jettySize=auto;html=1;" parent="1" source="QhE-6qrhUUo0ayt2risc-26" target="QhE-6qrhUUo0ayt2risc-42" edge="1"><mxGeometry relative="1" as="geometry"/></mxCell><mxCell id="QhE-6qrhUUo0ayt2risc-45" style="edgeStyle=none;rounded=0;orthogonalLoop=1;jettySize=auto;html=1;" parent="1" source="QhE-6qrhUUo0ayt2risc-26" target="QhE-6qrhUUo0ayt2risc-44" edge="1"><mxGeometry relative="1" as="geometry"/></mxCell><mxCell id="QhE-6qrhUUo0ayt2risc-47" style="edgeStyle=none;rounded=0;orthogonalLoop=1;jettySize=auto;html=1;" parent="1" source="QhE-6qrhUUo0ayt2risc-26" target="QhE-6qrhUUo0ayt2risc-46" edge="1"><mxGeometry relative="1" as="geometry"/></mxCell><mxCell id="QhE-6qrhUUo0ayt2risc-50" style="edgeStyle=none;rounded=0;orthogonalLoop=1;jettySize=auto;html=1;" parent="1" source="QhE-6qrhUUo0ayt2risc-26" target="QhE-6qrhUUo0ayt2risc-49" edge="1"><mxGeometry relative="1" as="geometry"/></mxCell><mxCell id="QhE-6qrhUUo0ayt2risc-53" style="edgeStyle=none;rounded=0;orthogonalLoop=1;jettySize=auto;html=1;" parent="1" source="QhE-6qrhUUo0ayt2risc-26" target="QhE-6qrhUUo0ayt2risc-52" edge="1"><mxGeometry relative="1" as="geometry"/></mxCell><mxCell id="QhE-6qrhUUo0ayt2risc-26" value="Actor" style="shape=umlActor;verticalLabelPosition=bottom;verticalAlign=top;html=1;" parent="1" vertex="1"><mxGeometry x="-20" y="368" width="30" height="60" as="geometry"/></mxCell><mxCell id="QhE-6qrhUUo0ayt2risc-27" value="Create Todo list" style="ellipse;whiteSpace=wrap;html=1;" parent="1" vertex="1"><mxGeometry x="130" y="200" width="140" height="70" as="geometry"/></mxCell><mxCell id="QhE-6qrhUUo0ayt2risc-32" value="Update Todo list name" style="ellipse;whiteSpace=wrap;html=1;" parent="1" vertex="1"><mxGeometry x="120" y="280" width="160" height="70" as="geometry"/></mxCell><mxCell id="QhE-6qrhUUo0ayt2risc-55" style="edgeStyle=none;rounded=0;orthogonalLoop=1;jettySize=auto;html=1;" parent="1" source="QhE-6qrhUUo0ayt2risc-34" target="QhE-6qrhUUo0ayt2risc-48" edge="1"><mxGeometry relative="1" as="geometry"/></mxCell><mxCell id="QhE-6qrhUUo0ayt2risc-34" value="Remove Todo list" style="ellipse;whiteSpace=wrap;html=1;" parent="1" vertex="1"><mxGeometry x="130" y="358" width="140" height="70" as="geometry"/></mxCell><mxCell id="QhE-6qrhUUo0ayt2risc-37" value="Todo entries" style="shape=umlFrame;whiteSpace=wrap;html=1;width=100;height=30;" parent="1" vertex="1"><mxGeometry x="-180" y="560" width="480" height="350" as="geometry"/></mxCell><mxCell id="QhE-6qrhUUo0ayt2risc-38" value="Add entry" style="ellipse;whiteSpace=wrap;html=1;" parent="1" vertex="1"><mxGeometry x="150" y="570" width="140" height="70" as="geometry"/></mxCell><mxCell id="QhE-6qrhUUo0ayt2risc-40" value="Remove entry" style="ellipse;whiteSpace=wrap;html=1;" parent="1" vertex="1"><mxGeometry x="130" y="670" width="140" height="70" as="geometry"/></mxCell><mxCell id="QhE-6qrhUUo0ayt2risc-42" value="Set as completed" style="ellipse;whiteSpace=wrap;html=1;" parent="1" vertex="1"><mxGeometry x="-110" y="700" width="140" height="70" as="geometry"/></mxCell><mxCell id="QhE-6qrhUUo0ayt2risc-44" value="Set as uncompleted" style="ellipse;whiteSpace=wrap;html=1;" parent="1" vertex="1"><mxGeometry x="-140" y="610" width="140" height="70" as="geometry"/></mxCell><mxCell id="QhE-6qrhUUo0ayt2risc-46" value="Update entry" style="ellipse;whiteSpace=wrap;html=1;" parent="1" vertex="1"><mxGeometry x="-40" y="800" width="140" height="70" as="geometry"/></mxCell><mxCell id="QhE-6qrhUUo0ayt2risc-48" value="Remove all entries" style="ellipse;whiteSpace=wrap;html=1;" parent="1" vertex="1"><mxGeometry x="370" y="358" width="140" height="70" as="geometry"/></mxCell><mxCell id="QhE-6qrhUUo0ayt2risc-49" value="Move entry to trash" style="ellipse;whiteSpace=wrap;html=1;" parent="1" vertex="1"><mxGeometry x="110" y="760" width="140" height="70" as="geometry"/></mxCell><mxCell id="QhE-6qrhUUo0ayt2risc-57" style="edgeStyle=none;rounded=0;orthogonalLoop=1;jettySize=auto;html=1;" parent="1" source="QhE-6qrhUUo0ayt2risc-52" target="QhE-6qrhUUo0ayt2risc-56" edge="1"><mxGeometry relative="1" as="geometry"/></mxCell><mxCell id="QhE-6qrhUUo0ayt2risc-52" value="Move Todo list to trash" style="ellipse;whiteSpace=wrap;html=1;" parent="1" vertex="1"><mxGeometry x="130" y="440" width="140" height="70" as="geometry"/></mxCell><mxCell id="QhE-6qrhUUo0ayt2risc-56" value="Move entries to trash" style="ellipse;whiteSpace=wrap;html=1;" parent="1" vertex="1"><mxGeometry x="370" y="440" width="140" height="70" as="geometry"/></mxCell><mxCell id="QhE-6qrhUUo0ayt2risc-58" value="&lt;&lt; aggregate &gt;&gt;&#10;Todo List" style="swimlane;fontStyle=1;align=center;verticalAlign=top;childLayout=stackLayout;horizontal=1;startSize=40;horizontalStack=0;resizeParent=1;resizeParentMax=0;resizeLast=0;collapsible=1;marginBottom=0;" parent="1" vertex="1"><mxGeometry x="830" y="850" width="160" height="126" as="geometry"/></mxCell><mxCell id="QhE-6qrhUUo0ayt2risc-67" value="+ id: uint64" style="text;strokeColor=none;fillColor=none;align=left;verticalAlign=top;spacingLeft=4;spacingRight=4;overflow=hidden;rotatable=0;points=[[0,0.5],[1,0.5]];portConstraint=eastwest;" parent="QhE-6qrhUUo0ayt2risc-58" vertex="1"><mxGeometry y="40" width="160" height="26" as="geometry"/></mxCell><mxCell id="QhE-6qrhUUo0ayt2risc-59" value="- name: string" style="text;strokeColor=none;fillColor=none;align=left;verticalAlign=top;spacingLeft=4;spacingRight=4;overflow=hidden;rotatable=0;points=[[0,0.5],[1,0.5]];portConstraint=eastwest;" parent="QhE-6qrhUUo0ayt2risc-58" vertex="1"><mxGeometry y="66" width="160" height="26" as="geometry"/></mxCell><mxCell id="QhE-6qrhUUo0ayt2risc-60" value="" style="line;strokeWidth=1;fillColor=none;align=left;verticalAlign=middle;spacingTop=-1;spacingLeft=3;spacingRight=3;rotatable=0;labelPosition=right;points=[];portConstraint=eastwest;strokeColor=inherit;" parent="QhE-6qrhUUo0ayt2risc-58" vertex="1"><mxGeometry y="92" width="160" height="8" as="geometry"/></mxCell><mxCell id="QhE-6qrhUUo0ayt2risc-61" value="+ getName(): string" style="text;strokeColor=none;fillColor=none;align=left;verticalAlign=top;spacingLeft=4;spacingRight=4;overflow=hidden;rotatable=0;points=[[0,0.5],[1,0.5]];portConstraint=eastwest;" parent="QhE-6qrhUUo0ayt2risc-58" vertex="1"><mxGeometry y="100" width="160" height="26" as="geometry"/></mxCell><mxCell id="QhE-6qrhUUo0ayt2risc-62" value="Todo entry" style="swimlane;fontStyle=1;align=center;verticalAlign=top;childLayout=stackLayout;horizontal=1;startSize=26;horizontalStack=0;resizeParent=1;resizeParentMax=0;resizeLast=0;collapsible=1;marginBottom=0;" parent="1" vertex="1"><mxGeometry x="830" y="1030" width="160" height="112" as="geometry"/></mxCell><mxCell id="QhE-6qrhUUo0ayt2risc-66" value="+ id: uint64" style="text;strokeColor=none;fillColor=none;align=left;verticalAlign=top;spacingLeft=4;spacingRight=4;overflow=hidden;rotatable=0;points=[[0,0.5],[1,0.5]];portConstraint=eastwest;" parent="QhE-6qrhUUo0ayt2risc-62" vertex="1"><mxGeometry y="26" width="160" height="26" as="geometry"/></mxCell><mxCell id="QhE-6qrhUUo0ayt2risc-63" value="- name: string" style="text;strokeColor=none;fillColor=none;align=left;verticalAlign=top;spacingLeft=4;spacingRight=4;overflow=hidden;rotatable=0;points=[[0,0.5],[1,0.5]];portConstraint=eastwest;" parent="QhE-6qrhUUo0ayt2risc-62" vertex="1"><mxGeometry y="52" width="160" height="26" as="geometry"/></mxCell><mxCell id="QhE-6qrhUUo0ayt2risc-64" value="" style="line;strokeWidth=1;fillColor=none;align=left;verticalAlign=middle;spacingTop=-1;spacingLeft=3;spacingRight=3;rotatable=0;labelPosition=right;points=[];portConstraint=eastwest;strokeColor=inherit;" parent="QhE-6qrhUUo0ayt2risc-62" vertex="1"><mxGeometry y="78" width="160" height="8" as="geometry"/></mxCell><mxCell id="QhE-6qrhUUo0ayt2risc-65" value="+ getName(): string" style="text;strokeColor=none;fillColor=none;align=left;verticalAlign=top;spacingLeft=4;spacingRight=4;overflow=hidden;rotatable=0;points=[[0,0.5],[1,0.5]];portConstraint=eastwest;" parent="QhE-6qrhUUo0ayt2risc-62" vertex="1"><mxGeometry y="86" width="160" height="26" as="geometry"/></mxCell><mxCell id="QhE-6qrhUUo0ayt2risc-69" value="" style="endArrow=none;html=1;edgeStyle=orthogonalEdgeStyle;rounded=0;" parent="1" source="QhE-6qrhUUo0ayt2risc-58" target="QhE-6qrhUUo0ayt2risc-62" edge="1"><mxGeometry relative="1" as="geometry"><mxPoint x="970" y="520" as="sourcePoint"/><mxPoint x="1130" y="520" as="targetPoint"/></mxGeometry></mxCell><mxCell id="QhE-6qrhUUo0ayt2risc-70" value="1" style="edgeLabel;resizable=0;html=1;align=left;verticalAlign=bottom;" parent="QhE-6qrhUUo0ayt2risc-69" connectable="0" vertex="1"><mxGeometry x="-1" relative="1" as="geometry"><mxPoint x="-10" y="18" as="offset"/></mxGeometry></mxCell><mxCell id="QhE-6qrhUUo0ayt2risc-71" value="*" style="edgeLabel;resizable=0;html=1;align=right;verticalAlign=bottom;" parent="QhE-6qrhUUo0ayt2risc-69" connectable="0" vertex="1"><mxGeometry x="1" relative="1" as="geometry"><mxPoint x="10" as="offset"/></mxGeometry></mxCell><mxCell id="3" style="edgeStyle=orthogonalEdgeStyle;rounded=0;orthogonalLoop=1;jettySize=auto;html=1;" parent="1" source="QhE-6qrhUUo0ayt2risc-73" target="2" edge="1"><mxGeometry relative="1" as="geometry"/></mxCell><mxCell id="QhE-6qrhUUo0ayt2risc-73" value="Commands" style="swimlane;fontStyle=0;childLayout=stackLayout;horizontal=1;startSize=26;fillColor=none;horizontalStack=0;resizeParent=1;resizeParentMax=0;resizeLast=0;collapsible=1;marginBottom=0;" parent="1" vertex="1"><mxGeometry x="1086" y="449" width="140" height="52" as="geometry"/></mxCell><mxCell id="QhE-6qrhUUo0ayt2risc-77" value="" style="endArrow=diamondThin;endFill=1;endSize=24;html=1;rounded=0;edgeStyle=orthogonalEdgeStyle;" parent="1" source="QhE-6qrhUUo0ayt2risc-5" target="QhE-6qrhUUo0ayt2risc-73" edge="1"><mxGeometry width="160" relative="1" as="geometry"><mxPoint x="1240" y="350" as="sourcePoint"/><mxPoint x="1180" y="490" as="targetPoint"/></mxGeometry></mxCell><mxCell id="4" style="edgeStyle=orthogonalEdgeStyle;rounded=0;orthogonalLoop=1;jettySize=auto;html=1;" parent="1" source="QhE-6qrhUUo0ayt2risc-78" target="2" edge="1"><mxGeometry relative="1" as="geometry"/></mxCell><mxCell id="QhE-6qrhUUo0ayt2risc-78" value="Queries" style="swimlane;fontStyle=0;childLayout=stackLayout;horizontal=1;startSize=26;fillColor=none;horizontalStack=0;resizeParent=1;resizeParentMax=0;resizeLast=0;collapsible=1;marginBottom=0;" parent="1" vertex="1"><mxGeometry x="1256" y="449" width="140" height="52" as="geometry"/></mxCell><mxCell id="QhE-6qrhUUo0ayt2risc-79" value="" style="endArrow=diamondThin;endFill=1;endSize=24;html=1;rounded=0;edgeStyle=orthogonalEdgeStyle;" parent="1" source="QhE-6qrhUUo0ayt2risc-5" target="QhE-6qrhUUo0ayt2risc-78" edge="1"><mxGeometry width="160" relative="1" as="geometry"><mxPoint x="1251.0285714285715" y="376" as="sourcePoint"/><mxPoint x="1200" y="459" as="targetPoint"/></mxGeometry></mxCell><mxCell id="QhE-6qrhUUo0ayt2risc-83" value="«interface»&lt;br&gt;&lt;b&gt;EventStore&lt;/b&gt;" style="html=1;" parent="1" vertex="1"><mxGeometry x="1340" y="200" width="110" height="50" as="geometry"/></mxCell><mxCell id="QhE-6qrhUUo0ayt2risc-84" value="Use" style="endArrow=open;endSize=12;dashed=1;html=1;rounded=0;edgeStyle=orthogonalEdgeStyle;" parent="1" source="QhE-6qrhUUo0ayt2risc-5" target="QhE-6qrhUUo0ayt2risc-83" edge="1"><mxGeometry x="0.4652" width="160" relative="1" as="geometry"><mxPoint x="1350" y="290" as="sourcePoint"/><mxPoint x="1510" y="290" as="targetPoint"/><mxPoint as="offset"/></mxGeometry></mxCell><mxCell id="QhE-6qrhUUo0ayt2risc-85" value="«interface»&lt;br&gt;&lt;b&gt;TodoListRepository&lt;br&gt;&amp;nbsp;Port&lt;/b&gt;" style="html=1;" parent="1" vertex="1"><mxGeometry x="1480" y="200" width="110" height="50" as="geometry"/></mxCell><mxCell id="QhE-6qrhUUo0ayt2risc-86" value="Use" style="endArrow=open;endSize=12;dashed=1;html=1;rounded=0;edgeStyle=orthogonalEdgeStyle;" parent="1" source="QhE-6qrhUUo0ayt2risc-5" target="QhE-6qrhUUo0ayt2risc-85" edge="1"><mxGeometry x="0.6845" width="160" relative="1" as="geometry"><mxPoint x="1321" y="353" as="sourcePoint"/><mxPoint x="1405" y="260" as="targetPoint"/><mxPoint as="offset"/></mxGeometry></mxCell><mxCell id="2" value="Handlers" style="html=1;" parent="1" vertex="1"><mxGeometry x="1186" y="590" width="110" height="50" as="geometry"/></mxCell><mxCell id="5" value="MongoDb Adapter" style="swimlane;fontStyle=0;childLayout=stackLayout;horizontal=1;startSize=26;fillColor=none;horizontalStack=0;resizeParent=1;resizeParentMax=0;resizeLast=0;collapsible=1;marginBottom=0;" vertex="1" parent="1"><mxGeometry x="1465" y="80" width="140" height="52" as="geometry"/></mxCell><mxCell id="9" value="" style="endArrow=block;dashed=1;endFill=0;endSize=12;html=1;rounded=0;" edge="1" parent="1" source="5" target="QhE-6qrhUUo0ayt2risc-85"><mxGeometry width="160" relative="1" as="geometry"><mxPoint x="1340" y="250" as="sourcePoint"/><mxPoint x="1500" y="250" as="targetPoint"/></mxGeometry></mxCell><mxCell id="10" value="gRPC Service" style="swimlane;fontStyle=0;childLayout=stackLayout;horizontal=1;startSize=26;fillColor=none;horizontalStack=0;resizeParent=1;resizeParentMax=0;resizeLast=0;collapsible=1;marginBottom=0;" vertex="1" parent="1"><mxGeometry x="720" y="314" width="140" height="52" as="geometry"/></mxCell><mxCell id="14" value="Use" style="endArrow=open;endSize=12;dashed=1;html=1;rounded=0;edgeStyle=orthogonalEdgeStyle;" edge="1" parent="1" source="10" target="QhE-6qrhUUo0ayt2risc-13"><mxGeometry width="160" relative="1" as="geometry"><mxPoint x="830" y="350" as="sourcePoint"/><mxPoint x="990" y="350" as="targetPoint"/></mxGeometry></mxCell><mxCell id="15" value="Console" style="swimlane;fontStyle=0;childLayout=stackLayout;horizontal=1;startSize=26;fillColor=none;horizontalStack=0;resizeParent=1;resizeParentMax=0;resizeLast=0;collapsible=1;marginBottom=0;" vertex="1" parent="1"><mxGeometry x="720" y="390" width="140" height="52" as="geometry"/></mxCell><mxCell id="19" value="Use" style="endArrow=open;endSize=12;dashed=1;html=1;rounded=0;edgeStyle=orthogonalEdgeStyle;" edge="1" parent="1" source="15" target="QhE-6qrhUUo0ayt2risc-13"><mxGeometry width="160" relative="1" as="geometry"><mxPoint x="870" y="470" as="sourcePoint"/><mxPoint x="1030" y="470" as="targetPoint"/></mxGeometry></mxCell></root></mxGraphModel></diagram></mxfile>